<?xml version="1.0" standalone="no"?>
<!DOCTYPE svg PUBLIC "-//W3C//DTD SVG 20010904//EN"
 "http://www.w3.org/TR/2001/REC-SVG-20010904/DTD/svg10.dtd">
<svg version="1.0" xmlns="http://www.w3.org/2000/svg"
 width="645.000000pt" height="387.000000pt" viewBox="0 0 645.000000 387.000000"
 preserveAspectRatio="xMidYMid meet">

<g transform="translate(0.000000,387.000000) scale(0.100000,-0.100000)"
fill="#000000" stroke="none">
<path d="M1703 2291 c-45 -12 -81 -37 -103 -74 -19 -31 -20 -58 -20 -962 0
-910 0 -931 20 -963 11 -18 34 -41 52 -52 32 -19 52 -20 528 -20 552 0 540 -1
587 69 l23 34 0 932 0 932 -23 33 c-12 19 -38 43 -57 54 -34 20 -51 21 -505
23 -259 1 -485 -2 -502 -6z m908 -124 c72 -48 69 -19 69 -727 0 -701 2 -676
-63 -724 -27 -20 -42 -21 -420 -24 -438 -3 -438 -3 -484 67 l-23 34 0 644 c0
720 -2 695 69 733 34 18 62 19 427 20 390 0 391 0 425 -23z m-365 -1568 c111
-53 113 -207 4 -261 -98 -49 -210 21 -210 131 0 61 29 107 83 131 54 25 71 25
123 -1z"/>
<path d="M3105 1836 c-64 -29 -107 -79 -135 -153 -19 -50 -21 -74 -18 -173 3
-104 6 -121 33 -173 54 -107 132 -151 265 -151 94 0 137 14 192 66 38 35 31
45 -19 25 -92 -36 -207 -29 -268 17 -46 35 -85 115 -88 178 l-2 53 208 3 207
2 0 73 c0 93 -13 139 -53 184 -47 54 -97 73 -192 73 -63 0 -91 -5 -130 -24z
m201 -41 c37 -24 64 -90 64 -157 l0 -58 -151 0 -152 0 6 59 c7 80 40 138 92
163 46 21 102 19 141 -7z"/>
<path d="M3690 1849 c-62 -17 -90 -31 -90 -45 0 -9 12 -14 33 -14 18 0 38 -5
45 -12 9 -9 12 -110 12 -392 0 -210 -4 -386 -8 -392 -4 -6 -24 -17 -44 -23
-21 -7 -38 -19 -38 -27 0 -11 26 -14 140 -14 112 0 140 3 140 14 0 12 -19 22
-72 40 -16 5 -18 19 -18 112 l0 107 33 -7 c163 -35 276 -2 351 101 45 62 66
142 66 252 0 156 -42 247 -137 295 -41 20 -154 21 -192 2 -33 -18 -87 -76 -96
-105 -12 -39 -25 -10 -25 55 l0 64 -32 -1 c-18 0 -49 -5 -68 -10z m364 -89
c49 -43 71 -113 70 -225 0 -139 -42 -240 -118 -286 -51 -31 -185 -22 -208 14
-4 7 -8 93 -7 192 0 146 3 188 17 220 37 88 74 115 154 115 50 0 62 -4 92 -30z"/>
<path d="M4413 1839 c-68 -21 -87 -49 -34 -49 64 0 61 13 61 -270 0 -278 2
-266 -54 -285 -16 -5 -31 -16 -34 -22 -3 -10 28 -13 132 -13 107 0 136 3 136
13 0 8 -18 21 -41 30 l-40 16 3 200 3 199 30 44 c46 64 87 88 152 88 49 0 59
-4 88 -33 43 -43 55 -115 55 -334 l0 -170 -40 -16 c-72 -28 -49 -37 96 -37
100 0 135 3 132 12 -4 12 -15 19 -60 37 l-28 11 0 219 c0 171 -3 228 -15 262
-17 49 -47 84 -87 105 -33 17 -160 19 -191 3 -33 -17 -87 -70 -103 -102 -22
-41 -34 -24 -34 49 l0 64 -32 -1 c-18 0 -61 -9 -95 -20z"/>
<path d="M5313 1830 c-112 -56 -157 -146 -157 -310 0 -124 22 -195 81 -255 57
-59 112 -79 218 -79 79 -1 97 2 148 27 115 57 162 158 155 337 -3 90 -7 113
-31 162 -51 105 -131 148 -272 148 -71 0 -90 -4 -142 -30z m189 -20 c48 -14
111 -85 129 -147 18 -62 18 -234 0 -296 -20 -69 -75 -127 -128 -134 -69 -9
-110 4 -157 50 -56 54 -76 120 -76 249 0 213 88 318 232 278z"/>
<path d="M3660 720 l0 -80 48 1 47 2 -40 6 c-36 5 -40 9 -40 36 0 26 4 31 30
34 l30 4 -30 6 c-24 5 -30 11 -30 31 0 21 6 26 35 31 l35 6 -42 2 -43 1 0 -80z"/>
<path d="M3792 723 l-2 -83 43 1 42 2 -35 6 -35 6 -6 75 -5 75 -2 -82z"/>
<path d="M3910 720 l0 -80 43 1 42 2 -35 6 c-30 5 -35 10 -38 38 -3 29 -1 32
30 36 l33 4 -32 1 c-29 2 -33 5 -33 31 0 27 4 30 38 34 l37 4 -42 1 -43 2 0
-80z"/>
<path d="M4050 780 c-45 -45 -14 -140 44 -140 14 0 27 4 30 8 3 5 -8 7 -23 4
-21 -3 -33 2 -45 19 -35 51 -7 124 45 117 15 -3 26 -1 23 4 -10 15 -54 8 -74
-12z"/>
<path d="M4180 791 c23 -6 25 -13 31 -81 l5 -75 2 77 c2 75 2 77 30 81 15 2 0
4 -33 5 -39 0 -51 -2 -35 -7z"/>
<path d="M4312 718 c1 -46 3 -66 5 -45 6 50 33 50 57 1 9 -20 19 -34 22 -31 3
3 -2 20 -13 37 -17 30 -17 32 0 41 20 11 23 49 5 67 -7 7 -27 12 -45 12 l-33
0 2 -82z m69 56 c18 -21 0 -48 -35 -52 -24 -3 -26 0 -26 32 0 31 3 36 24 36
13 0 29 -7 37 -16z"/>
<path d="M4456 778 c-23 -32 -20 -94 4 -118 25 -25 51 -25 80 -2 29 23 32 93
5 122 -25 27 -70 26 -89 -2z m78 -4 c34 -33 10 -124 -32 -124 -28 0 -52 32
-52 68 0 60 48 92 84 56z"/>
<path d="M4612 718 l2 -83 5 70 6 70 38 -67 c21 -38 40 -68 42 -68 3 0 5 9 5
21 0 11 -4 18 -9 15 -5 -3 -23 21 -40 54 -18 33 -36 62 -41 65 -6 4 -9 -26 -8
-77z"/>
<path d="M4703 745 c0 -33 2 -45 4 -27 2 18 2 45 0 60 -2 15 -4 0 -4 -33z"/>
<path d="M4773 720 c0 -47 2 -66 4 -42 2 23 2 61 0 85 -2 23 -4 4 -4 -43z"/>
<path d="M4844 779 c-11 -13 -19 -35 -19 -59 0 -62 50 -99 95 -70 11 7 6 8
-16 4 -53 -10 -89 48 -62 103 12 24 19 28 52 27 25 -1 33 2 25 7 -24 15 -55
10 -75 -12z"/>
<path d="M4972 788 c-23 -23 -13 -47 29 -68 31 -16 40 -26 37 -43 -3 -25 -41
-35 -64 -17 -10 9 -14 9 -14 1 0 -15 50 -26 69 -14 9 6 17 22 19 37 3 22 -2
29 -31 41 -19 8 -37 21 -40 29 -9 22 19 39 50 32 21 -5 24 -4 13 4 -20 13 -53
13 -68 -2z"/>
</g>
</svg>
